<mxfile host="app.diagrams.net" agent="Mozilla/5.0 (Windows NT 10.0; Win64; x64) AppleWebKit/537.36 (KHTML, like Gecko) Chrome/128.0.0.0 Safari/537.36" version="24.7.14">
  <diagram name="Página-1" id="WH_XUDzde9THNt4Eo2t5">
    <mxGraphModel dx="2181" dy="600" grid="1" gridSize="10" guides="1" tooltips="1" connect="1" arrows="1" fold="1" page="1" pageScale="1" pageWidth="827" pageHeight="1169" math="0" shadow="0">
      <root>
        <mxCell id="0" />
        <mxCell id="1" parent="0" />
        <mxCell id="JoLdyginigCr9SkEDwe3-1" value="Usuario" style="whiteSpace=wrap;html=1;align=center;" parent="1" vertex="1">
          <mxGeometry x="-460" y="245" width="100" height="40" as="geometry" />
        </mxCell>
        <mxCell id="p9-8fLVvszv34ErNhzxn-12" style="edgeStyle=orthogonalEdgeStyle;rounded=0;orthogonalLoop=1;jettySize=auto;html=1;exitX=1;exitY=0.5;exitDx=0;exitDy=0;entryX=0;entryY=0.5;entryDx=0;entryDy=0;" edge="1" parent="1" source="JoLdyginigCr9SkEDwe3-4" target="JoLdyginigCr9SkEDwe3-71">
          <mxGeometry relative="1" as="geometry" />
        </mxCell>
        <mxCell id="JoLdyginigCr9SkEDwe3-4" value="Conductor" style="whiteSpace=wrap;html=1;align=center;" parent="1" vertex="1">
          <mxGeometry x="50" y="172" width="100" height="40" as="geometry" />
        </mxCell>
        <mxCell id="JoLdyginigCr9SkEDwe3-5" value="nombre_completo" style="ellipse;whiteSpace=wrap;html=1;align=center;" parent="1" vertex="1">
          <mxGeometry x="-600" y="345" width="100" height="40" as="geometry" />
        </mxCell>
        <mxCell id="JoLdyginigCr9SkEDwe3-6" value="dni" style="ellipse;whiteSpace=wrap;html=1;align=center;fontStyle=4;" parent="1" vertex="1">
          <mxGeometry x="-600" y="295" width="100" height="40" as="geometry" />
        </mxCell>
        <mxCell id="JoLdyginigCr9SkEDwe3-8" value="fecha_nacimiento" style="ellipse;whiteSpace=wrap;html=1;align=center;" parent="1" vertex="1">
          <mxGeometry x="-600" y="395" width="100" height="40" as="geometry" />
        </mxCell>
        <mxCell id="JoLdyginigCr9SkEDwe3-9" value="email" style="ellipse;whiteSpace=wrap;html=1;align=center;" parent="1" vertex="1">
          <mxGeometry x="-600" y="445" width="100" height="40" as="geometry" />
        </mxCell>
        <mxCell id="JoLdyginigCr9SkEDwe3-10" value="usuario" style="ellipse;whiteSpace=wrap;html=1;align=center;" parent="1" vertex="1">
          <mxGeometry x="-600" y="495" width="100" height="40" as="geometry" />
        </mxCell>
        <mxCell id="JoLdyginigCr9SkEDwe3-11" value="contraseña" style="ellipse;whiteSpace=wrap;html=1;align=center;" parent="1" vertex="1">
          <mxGeometry x="-480" y="300" width="100" height="40" as="geometry" />
        </mxCell>
        <mxCell id="JoLdyginigCr9SkEDwe3-12" value="telefono" style="ellipse;whiteSpace=wrap;html=1;align=center;" parent="1" vertex="1">
          <mxGeometry x="-480" y="350" width="100" height="40" as="geometry" />
        </mxCell>
        <mxCell id="JoLdyginigCr9SkEDwe3-13" value="direccion" style="ellipse;whiteSpace=wrap;html=1;align=center;" parent="1" vertex="1">
          <mxGeometry x="-480" y="400" width="100" height="40" as="geometry" />
        </mxCell>
        <mxCell id="JoLdyginigCr9SkEDwe3-14" value="genero" style="ellipse;whiteSpace=wrap;html=1;align=center;" parent="1" vertex="1">
          <mxGeometry x="-480" y="445" width="100" height="40" as="geometry" />
        </mxCell>
        <mxCell id="JoLdyginigCr9SkEDwe3-15" value="&amp;nbsp;rango" style="ellipse;whiteSpace=wrap;html=1;align=center;" parent="1" vertex="1">
          <mxGeometry x="-360" y="300" width="100" height="40" as="geometry" />
        </mxCell>
        <mxCell id="JoLdyginigCr9SkEDwe3-17" value="permiso_conducir" style="ellipse;whiteSpace=wrap;html=1;align=center;fontStyle=4;fillColor=#e1d5e7;strokeColor=#9673a6;" parent="1" vertex="1">
          <mxGeometry x="-360" y="350" width="100" height="40" as="geometry" />
        </mxCell>
        <mxCell id="JoLdyginigCr9SkEDwe3-18" value="permiso_conducir" style="ellipse;whiteSpace=wrap;html=1;align=center;fontStyle=4;" parent="1" vertex="1">
          <mxGeometry x="50" y="232" width="100" height="40" as="geometry" />
        </mxCell>
        <mxCell id="JoLdyginigCr9SkEDwe3-19" value="verificacion" style="ellipse;whiteSpace=wrap;html=1;align=center;" parent="1" vertex="1">
          <mxGeometry x="55" y="332" width="100" height="40" as="geometry" />
        </mxCell>
        <mxCell id="JoLdyginigCr9SkEDwe3-20" value="marca" style="ellipse;whiteSpace=wrap;html=1;align=center;" parent="1" vertex="1">
          <mxGeometry x="270" y="272" width="100" height="40" as="geometry" />
        </mxCell>
        <mxCell id="JoLdyginigCr9SkEDwe3-21" value="modelo" style="ellipse;whiteSpace=wrap;html=1;align=center;" parent="1" vertex="1">
          <mxGeometry x="270" y="322" width="100" height="40" as="geometry" />
        </mxCell>
        <mxCell id="JoLdyginigCr9SkEDwe3-22" value="carroceria" style="ellipse;whiteSpace=wrap;html=1;align=center;" parent="1" vertex="1">
          <mxGeometry x="270" y="372" width="100" height="40" as="geometry" />
        </mxCell>
        <mxCell id="JoLdyginigCr9SkEDwe3-24" value="año" style="ellipse;whiteSpace=wrap;html=1;align=center;" parent="1" vertex="1">
          <mxGeometry x="270" y="422" width="100" height="40" as="geometry" />
        </mxCell>
        <mxCell id="JoLdyginigCr9SkEDwe3-26" value="matricula" style="ellipse;whiteSpace=wrap;html=1;align=center;fontStyle=4;" parent="1" vertex="1">
          <mxGeometry x="270" y="222" width="100" height="40" as="geometry" />
        </mxCell>
        <mxCell id="JoLdyginigCr9SkEDwe3-27" value="Coche" style="whiteSpace=wrap;html=1;align=center;" parent="1" vertex="1">
          <mxGeometry x="270" y="172" width="100" height="40" as="geometry" />
        </mxCell>
        <mxCell id="JoLdyginigCr9SkEDwe3-29" value="permiso_conducir" style="ellipse;whiteSpace=wrap;html=1;align=center;fontStyle=4;fillColor=#e1d5e7;strokeColor=#9673a6;" parent="1" vertex="1">
          <mxGeometry x="270" y="472" width="100" height="40" as="geometry" />
        </mxCell>
        <mxCell id="JoLdyginigCr9SkEDwe3-30" value="foto" style="ellipse;whiteSpace=wrap;html=1;align=center;" parent="1" vertex="1">
          <mxGeometry x="-360" y="400" width="100" height="40" as="geometry" />
        </mxCell>
        <mxCell id="JoLdyginigCr9SkEDwe3-31" value="foto_carnet" style="ellipse;whiteSpace=wrap;html=1;align=center;" parent="1" vertex="1">
          <mxGeometry x="55" y="282" width="100" height="40" as="geometry" />
        </mxCell>
        <mxCell id="JoLdyginigCr9SkEDwe3-33" value="id_viaje" style="ellipse;whiteSpace=wrap;html=1;align=center;fontStyle=4;" parent="1" vertex="1">
          <mxGeometry x="-270" y="30" width="100" height="40" as="geometry" />
        </mxCell>
        <mxCell id="JoLdyginigCr9SkEDwe3-34" value="origen" style="ellipse;whiteSpace=wrap;html=1;align=center;" parent="1" vertex="1">
          <mxGeometry x="-150" y="30" width="100" height="40" as="geometry" />
        </mxCell>
        <mxCell id="JoLdyginigCr9SkEDwe3-35" value="destino" style="ellipse;whiteSpace=wrap;html=1;align=center;" parent="1" vertex="1">
          <mxGeometry x="-30" y="30" width="100" height="40" as="geometry" />
        </mxCell>
        <mxCell id="JoLdyginigCr9SkEDwe3-44" value="n_asiento" style="ellipse;whiteSpace=wrap;html=1;align=center;" parent="1" vertex="1">
          <mxGeometry x="-492" y="170" width="100" height="40" as="geometry" />
        </mxCell>
        <mxCell id="JoLdyginigCr9SkEDwe3-45" value="n_plazas" style="ellipse;whiteSpace=wrap;html=1;align=center;" parent="1" vertex="1">
          <mxGeometry x="270" y="522" width="100" height="40" as="geometry" />
        </mxCell>
        <mxCell id="JoLdyginigCr9SkEDwe3-46" value="matricula" style="ellipse;whiteSpace=wrap;html=1;align=center;fontStyle=4;fillColor=#e1d5e7;strokeColor=#9673a6;" parent="1" vertex="1">
          <mxGeometry x="-260" y="80" width="100" height="40" as="geometry" />
        </mxCell>
        <mxCell id="JoLdyginigCr9SkEDwe3-51" value="nivel_acceso" style="ellipse;whiteSpace=wrap;html=1;align=center;" parent="1" vertex="1">
          <mxGeometry x="-360" y="450" width="100" height="40" as="geometry" />
        </mxCell>
        <mxCell id="JoLdyginigCr9SkEDwe3-54" value="id_viaje" style="ellipse;whiteSpace=wrap;html=1;align=center;fontStyle=4;" parent="1" vertex="1">
          <mxGeometry x="-270" y="30" width="100" height="40" as="geometry" />
        </mxCell>
        <mxCell id="JoLdyginigCr9SkEDwe3-55" value="id_viaje" style="ellipse;whiteSpace=wrap;html=1;align=center;fontStyle=4;fillColor=#e1d5e7;strokeColor=#9673a6;" parent="1" vertex="1">
          <mxGeometry x="-492" y="120" width="100" height="40" as="geometry" />
        </mxCell>
        <mxCell id="JoLdyginigCr9SkEDwe3-56" value="dni" style="ellipse;whiteSpace=wrap;html=1;align=center;fontStyle=4;fillColor=#e1d5e7;strokeColor=#9673a6;" parent="1" vertex="1">
          <mxGeometry x="-608" y="170" width="100" height="40" as="geometry" />
        </mxCell>
        <mxCell id="JoLdyginigCr9SkEDwe3-58" value="plazas_disponibles" style="ellipse;whiteSpace=wrap;html=1;align=center;" parent="1" vertex="1">
          <mxGeometry x="-140" y="80" width="100" height="40" as="geometry" />
        </mxCell>
        <mxCell id="JoLdyginigCr9SkEDwe3-59" value="id_plaza" style="ellipse;whiteSpace=wrap;html=1;align=center;fontStyle=4;" parent="1" vertex="1">
          <mxGeometry x="-608" y="120" width="100" height="40" as="geometry" />
        </mxCell>
        <mxCell id="JoLdyginigCr9SkEDwe3-61" value="precio" style="ellipse;whiteSpace=wrap;html=1;align=center;" parent="1" vertex="1">
          <mxGeometry x="-30" y="80" width="100" height="40" as="geometry" />
        </mxCell>
        <mxCell id="JoLdyginigCr9SkEDwe3-66" value="Incidencia" style="whiteSpace=wrap;html=1;align=center;" parent="1" vertex="1">
          <mxGeometry x="-145" y="277" width="100" height="40" as="geometry" />
        </mxCell>
        <mxCell id="JoLdyginigCr9SkEDwe3-67" value="id_viaje" style="ellipse;whiteSpace=wrap;html=1;align=center;fontStyle=4;fillColor=#e1d5e7;strokeColor=#9673a6;" parent="1" vertex="1">
          <mxGeometry x="-205" y="382" width="100" height="40" as="geometry" />
        </mxCell>
        <mxCell id="JoLdyginigCr9SkEDwe3-68" value="dni" style="ellipse;whiteSpace=wrap;html=1;align=center;fontStyle=4;fillColor=#e1d5e7;strokeColor=#9673a6;" parent="1" vertex="1">
          <mxGeometry x="-205" y="332" width="100" height="40" as="geometry" />
        </mxCell>
        <mxCell id="JoLdyginigCr9SkEDwe3-69" value="descripcion" style="ellipse;whiteSpace=wrap;html=1;align=center;" parent="1" vertex="1">
          <mxGeometry x="-150" y="422" width="100" height="40" as="geometry" />
        </mxCell>
        <mxCell id="p9-8fLVvszv34ErNhzxn-13" style="edgeStyle=orthogonalEdgeStyle;rounded=0;orthogonalLoop=1;jettySize=auto;html=1;exitX=1;exitY=0;exitDx=0;exitDy=0;entryX=0;entryY=0.5;entryDx=0;entryDy=0;" edge="1" parent="1" source="JoLdyginigCr9SkEDwe3-71" target="JoLdyginigCr9SkEDwe3-27">
          <mxGeometry relative="1" as="geometry" />
        </mxCell>
        <mxCell id="JoLdyginigCr9SkEDwe3-71" value="tener" style="shape=rhombus;perimeter=rhombusPerimeter;whiteSpace=wrap;html=1;align=center;" parent="1" vertex="1">
          <mxGeometry x="160" y="162" width="90" height="60" as="geometry" />
        </mxCell>
        <mxCell id="BR2CXiY8fAvDm89jnZAa-1" value="&lt;u&gt;id_incidencias&lt;/u&gt;" style="ellipse;whiteSpace=wrap;html=1;align=center;" parent="1" vertex="1">
          <mxGeometry x="-95" y="332" width="100" height="40" as="geometry" />
        </mxCell>
        <mxCell id="BR2CXiY8fAvDm89jnZAa-2" value="estado" style="ellipse;whiteSpace=wrap;html=1;align=center;" parent="1" vertex="1">
          <mxGeometry x="-95" y="382" width="100" height="40" as="geometry" />
        </mxCell>
        <mxCell id="BR2CXiY8fAvDm89jnZAa-12" style="edgeStyle=orthogonalEdgeStyle;rounded=0;orthogonalLoop=1;jettySize=auto;html=1;exitX=1;exitY=0.5;exitDx=0;exitDy=0;entryX=0;entryY=0.5;entryDx=0;entryDy=0;" parent="1" source="BR2CXiY8fAvDm89jnZAa-3" target="JoLdyginigCr9SkEDwe3-4" edge="1">
          <mxGeometry relative="1" as="geometry" />
        </mxCell>
        <mxCell id="BR2CXiY8fAvDm89jnZAa-3" value="viajes" style="shape=associativeEntity;whiteSpace=wrap;html=1;align=center;" parent="1" vertex="1">
          <mxGeometry x="-145" y="132" width="120" height="50" as="geometry" />
        </mxCell>
        <mxCell id="BR2CXiY8fAvDm89jnZAa-11" style="edgeStyle=orthogonalEdgeStyle;rounded=0;orthogonalLoop=1;jettySize=auto;html=1;exitX=0.5;exitY=1;exitDx=0;exitDy=0;entryX=0.75;entryY=0;entryDx=0;entryDy=0;" parent="1" source="BR2CXiY8fAvDm89jnZAa-4" target="JoLdyginigCr9SkEDwe3-1" edge="1">
          <mxGeometry relative="1" as="geometry" />
        </mxCell>
        <mxCell id="BR2CXiY8fAvDm89jnZAa-4" value="plazas" style="shape=associativeEntity;whiteSpace=wrap;html=1;align=center;" parent="1" vertex="1">
          <mxGeometry x="-375" y="170" width="97" height="40" as="geometry" />
        </mxCell>
        <mxCell id="BR2CXiY8fAvDm89jnZAa-5" value="1" style="text;html=1;align=center;verticalAlign=middle;resizable=0;points=[];autosize=1;strokeColor=none;fillColor=none;" parent="1" vertex="1">
          <mxGeometry x="145" y="150" width="30" height="30" as="geometry" />
        </mxCell>
        <mxCell id="BR2CXiY8fAvDm89jnZAa-6" value="n" style="text;html=1;align=center;verticalAlign=middle;resizable=0;points=[];autosize=1;strokeColor=none;fillColor=none;" parent="1" vertex="1">
          <mxGeometry x="235" y="150" width="30" height="30" as="geometry" />
        </mxCell>
        <mxCell id="BR2CXiY8fAvDm89jnZAa-7" value="1" style="text;html=1;align=center;verticalAlign=middle;resizable=0;points=[];autosize=1;strokeColor=none;fillColor=none;" parent="1" vertex="1">
          <mxGeometry x="155" y="200" width="30" height="30" as="geometry" />
        </mxCell>
        <mxCell id="BR2CXiY8fAvDm89jnZAa-8" value="1" style="text;html=1;align=center;verticalAlign=middle;resizable=0;points=[];autosize=1;strokeColor=none;fillColor=none;" parent="1" vertex="1">
          <mxGeometry x="235" y="190" width="30" height="30" as="geometry" />
        </mxCell>
        <mxCell id="BR2CXiY8fAvDm89jnZAa-9" value="(1,n)" style="text;html=1;align=center;verticalAlign=middle;resizable=0;points=[];autosize=1;strokeColor=none;fillColor=none;" parent="1" vertex="1">
          <mxGeometry x="175" y="120" width="50" height="30" as="geometry" />
        </mxCell>
        <mxCell id="BR2CXiY8fAvDm89jnZAa-10" style="edgeStyle=orthogonalEdgeStyle;rounded=0;orthogonalLoop=1;jettySize=auto;html=1;exitX=0;exitY=0.5;exitDx=0;exitDy=0;entryX=0.859;entryY=0.338;entryDx=0;entryDy=0;entryPerimeter=0;" parent="1" source="BR2CXiY8fAvDm89jnZAa-3" target="BR2CXiY8fAvDm89jnZAa-4" edge="1">
          <mxGeometry relative="1" as="geometry">
            <mxPoint x="-228" y="165" as="sourcePoint" />
          </mxGeometry>
        </mxCell>
        <mxCell id="p9-8fLVvszv34ErNhzxn-15" style="edgeStyle=orthogonalEdgeStyle;rounded=0;orthogonalLoop=1;jettySize=auto;html=1;exitX=0.5;exitY=1;exitDx=0;exitDy=0;entryX=0.5;entryY=0;entryDx=0;entryDy=0;" edge="1" parent="1" source="BR2CXiY8fAvDm89jnZAa-13" target="JoLdyginigCr9SkEDwe3-66">
          <mxGeometry relative="1" as="geometry" />
        </mxCell>
        <mxCell id="BR2CXiY8fAvDm89jnZAa-13" value="tener" style="shape=rhombus;perimeter=rhombusPerimeter;whiteSpace=wrap;html=1;align=center;" parent="1" vertex="1">
          <mxGeometry x="-132.5" y="213" width="85" height="40" as="geometry" />
        </mxCell>
        <mxCell id="BR2CXiY8fAvDm89jnZAa-14" value="1" style="text;html=1;align=center;verticalAlign=middle;resizable=0;points=[];autosize=1;strokeColor=none;fillColor=none;" parent="1" vertex="1">
          <mxGeometry x="-135" y="198" width="30" height="30" as="geometry" />
        </mxCell>
        <mxCell id="BR2CXiY8fAvDm89jnZAa-15" value="n" style="text;html=1;align=center;verticalAlign=middle;resizable=0;points=[];autosize=1;strokeColor=none;fillColor=none;" parent="1" vertex="1">
          <mxGeometry x="-145" y="228" width="30" height="30" as="geometry" />
        </mxCell>
        <mxCell id="BR2CXiY8fAvDm89jnZAa-16" value="1" style="text;html=1;align=center;verticalAlign=middle;resizable=0;points=[];autosize=1;strokeColor=none;fillColor=none;" parent="1" vertex="1">
          <mxGeometry x="-65" y="238" width="30" height="30" as="geometry" />
        </mxCell>
        <mxCell id="BR2CXiY8fAvDm89jnZAa-17" value="1" style="text;html=1;align=center;verticalAlign=middle;resizable=0;points=[];autosize=1;strokeColor=none;fillColor=none;" parent="1" vertex="1">
          <mxGeometry x="-65" y="198" width="30" height="30" as="geometry" />
        </mxCell>
        <mxCell id="BR2CXiY8fAvDm89jnZAa-18" value="(1,n)" style="text;html=1;align=center;verticalAlign=middle;resizable=0;points=[];autosize=1;strokeColor=none;fillColor=none;" parent="1" vertex="1">
          <mxGeometry x="-107.5" y="182" width="50" height="30" as="geometry" />
        </mxCell>
        <mxCell id="p9-8fLVvszv34ErNhzxn-1" value="n" style="text;html=1;align=center;verticalAlign=middle;resizable=0;points=[];autosize=1;strokeColor=none;fillColor=none;" vertex="1" parent="1">
          <mxGeometry x="-265" y="138" width="30" height="30" as="geometry" />
        </mxCell>
        <mxCell id="p9-8fLVvszv34ErNhzxn-2" value="1" style="text;html=1;align=center;verticalAlign=middle;resizable=0;points=[];autosize=1;strokeColor=none;fillColor=none;" vertex="1" parent="1">
          <mxGeometry x="-185" y="138" width="30" height="30" as="geometry" />
        </mxCell>
        <mxCell id="p9-8fLVvszv34ErNhzxn-3" value="1" style="text;html=1;align=center;verticalAlign=middle;resizable=0;points=[];autosize=1;strokeColor=none;fillColor=none;" vertex="1" parent="1">
          <mxGeometry x="-265" y="188" width="30" height="30" as="geometry" />
        </mxCell>
        <mxCell id="p9-8fLVvszv34ErNhzxn-4" value="1" style="text;html=1;align=center;verticalAlign=middle;resizable=0;points=[];autosize=1;strokeColor=none;fillColor=none;" vertex="1" parent="1">
          <mxGeometry x="-185" y="168" width="30" height="30" as="geometry" />
        </mxCell>
        <mxCell id="p9-8fLVvszv34ErNhzxn-5" value="(n,1)" style="text;html=1;align=center;verticalAlign=middle;resizable=0;points=[];autosize=1;strokeColor=none;fillColor=none;" vertex="1" parent="1">
          <mxGeometry x="-255" y="128" width="50" height="30" as="geometry" />
        </mxCell>
        <mxCell id="p9-8fLVvszv34ErNhzxn-6" value="1" style="text;html=1;align=center;verticalAlign=middle;resizable=0;points=[];autosize=1;strokeColor=none;fillColor=none;" vertex="1" parent="1">
          <mxGeometry x="-335" y="208" width="30" height="30" as="geometry" />
        </mxCell>
        <mxCell id="p9-8fLVvszv34ErNhzxn-8" value="1" style="text;html=1;align=center;verticalAlign=middle;resizable=0;points=[];autosize=1;strokeColor=none;fillColor=none;" vertex="1" parent="1">
          <mxGeometry x="-335" y="238" width="30" height="30" as="geometry" />
        </mxCell>
        <mxCell id="p9-8fLVvszv34ErNhzxn-9" value="n" style="text;html=1;align=center;verticalAlign=middle;resizable=0;points=[];autosize=1;strokeColor=none;fillColor=none;" vertex="1" parent="1">
          <mxGeometry x="-375" y="198" width="30" height="30" as="geometry" />
        </mxCell>
        <mxCell id="p9-8fLVvszv34ErNhzxn-10" value="1" style="text;html=1;align=center;verticalAlign=middle;resizable=0;points=[];autosize=1;strokeColor=none;fillColor=none;" vertex="1" parent="1">
          <mxGeometry x="-415" y="218" width="30" height="30" as="geometry" />
        </mxCell>
        <mxCell id="p9-8fLVvszv34ErNhzxn-11" value="(n,1)" style="text;html=1;align=center;verticalAlign=middle;resizable=0;points=[];autosize=1;strokeColor=none;fillColor=none;" vertex="1" parent="1">
          <mxGeometry x="-315" y="218" width="50" height="30" as="geometry" />
        </mxCell>
        <mxCell id="p9-8fLVvszv34ErNhzxn-14" style="edgeStyle=orthogonalEdgeStyle;rounded=0;orthogonalLoop=1;jettySize=auto;html=1;exitX=0.75;exitY=1;exitDx=0;exitDy=0;entryX=0.624;entryY=0.225;entryDx=0;entryDy=0;entryPerimeter=0;" edge="1" parent="1" source="BR2CXiY8fAvDm89jnZAa-3" target="BR2CXiY8fAvDm89jnZAa-13">
          <mxGeometry relative="1" as="geometry" />
        </mxCell>
      </root>
    </mxGraphModel>
  </diagram>
</mxfile>
